<svg xmlns="http://www.w3.org/2000/svg" version="1.1" style="shape-rendering:geometricPrecision; text-rendering:geometricPrecision; image-rendering:optimizeQuality; fill-rule:evenodd; clip-rule:evenodd" xmlns:xlink="http://www.w3.org/1999/xlink" viewBox="-0.5 -0.5 721 96">
<g><path style="opacity:1" fill="#fdfdfd" d="M -0.5,-0.5 C 239.833,-0.5 480.167,-0.5 720.5,-0.5C 720.5,31.5 720.5,63.5 720.5,95.5C 480.167,95.5 239.833,95.5 -0.5,95.5C -0.5,63.5 -0.5,31.5 -0.5,-0.5 Z"/></g>
<g><path style="opacity:1" fill="#050505" d="M 665.5,3.5 C 704.587,1.08935 722.087,19.4227 718,58.5C 714.69,75.8085 704.524,86.6419 687.5,91C 653.752,94.9166 636.419,79.9166 635.5,46C 635.683,24.6844 645.683,10.5178 665.5,3.5 Z"/></g>
<g><path style="opacity:1" fill="#040404" d="M 36.5,4.5 C 43.0898,4.189 49.5898,4.52234 56,5.5C 67.0688,33.5398 78.2354,61.5398 89.5,89.5C 83.2015,90.4963 76.8682,90.8297 70.5,90.5C 68.5939,84.185 66.2606,78.0183 63.5,72C 51.8191,71.1675 40.1524,71.3341 28.5,72.5C 26.2907,78.4612 24.2907,84.4612 22.5,90.5C 16.1579,90.6662 9.82458,90.4995 3.5,90C 14.9958,61.6774 25.9958,33.1774 36.5,4.5 Z"/></g>
<g><path style="opacity:1" fill="#090909" d="M 171.5,4.5 C 177.5,4.5 183.5,4.5 189.5,4.5C 189.5,33.1667 189.5,61.8333 189.5,90.5C 183.5,90.5 177.5,90.5 171.5,90.5C 171.5,61.8333 171.5,33.1667 171.5,4.5 Z"/></g>
<g><path style="opacity:1" fill="#060606" d="M 205.5,4.5 C 221.503,4.33341 237.503,4.50007 253.5,5C 271.409,9.65208 276.909,20.4854 270,37.5C 267.876,40.3247 265.376,42.8247 262.5,45C 277.532,52.2449 281.365,63.4116 274,78.5C 270.099,85.2049 264.266,89.0383 256.5,90C 239.503,90.4999 222.503,90.6666 205.5,90.5C 205.5,61.8333 205.5,33.1667 205.5,4.5 Z"/></g>
<g><path style="opacity:1" fill="#040404" d="M 316.5,4.5 C 322.868,4.17033 329.202,4.50367 335.5,5.5C 347.029,33.4199 358.362,61.4199 369.5,89.5C 363.167,90.8333 356.833,90.8333 350.5,89.5C 348.296,83.5953 345.963,77.762 343.5,72C 331.819,71.1675 320.152,71.3341 308.5,72.5C 305.92,78.3227 303.92,84.3227 302.5,90.5C 296.158,90.6662 289.825,90.4995 283.5,90C 294.996,61.6774 305.996,33.1774 316.5,4.5 Z"/></g>
<g><path style="opacity:1" fill="#070707" d="M 378.5,4.5 C 393.504,4.33342 408.504,4.50008 423.5,5C 442.845,7.54543 449.678,18.0454 444,36.5C 441.833,40 439,42.8333 435.5,45C 450.34,51.5384 454.507,62.3718 448,77.5C 443.705,85.0662 437.205,89.2329 428.5,90C 411.837,90.4999 395.17,90.6666 378.5,90.5C 378.5,61.8333 378.5,33.1667 378.5,4.5 Z"/></g>
<g><path style="opacity:1" fill="#040404" d="M 490.5,4.5 C 496.758,4.19031 502.924,4.52364 509,5.5C 520.666,33.6711 531.833,62.0044 542.5,90.5C 536.167,90.5 529.833,90.5 523.5,90.5C 521.78,84.0646 519.78,77.7313 517.5,71.5C 505.5,71.5 493.5,71.5 481.5,71.5C 480.08,77.6773 478.08,83.6773 475.5,89.5C 469.193,90.6639 462.859,90.8306 456.5,90C 468.13,61.6073 479.464,33.1073 490.5,4.5 Z"/></g>
<g><path style="opacity:1" fill="#030303" d="M 552.5,4.5 C 570.198,4.13705 587.865,4.63705 605.5,6C 618.518,10.5211 624.018,19.6878 622,33.5C 619.31,44.8539 612.143,51.3539 600.5,53C 604.458,55.234 607.958,58.0673 611,61.5C 617.167,71 623.333,80.5 629.5,90C 622.5,90.6667 615.5,90.6667 608.5,90C 601.479,78.2915 593.479,67.2915 584.5,57C 579.777,54.7645 574.777,53.9312 569.5,54.5C 569.5,66.5 569.5,78.5 569.5,90.5C 563.833,90.5 558.167,90.5 552.5,90.5C 552.5,61.8333 552.5,33.1667 552.5,4.5 Z"/></g>
<g><path style="opacity:1" fill="#000000" d="M 116.5,5.5 C 116.5,29.1667 116.5,52.8333 116.5,76.5C 130.833,76.5 145.167,76.5 159.5,76.5C 159.5,81.1667 159.5,85.8333 159.5,90.5C 139.5,90.5 119.5,90.5 99.5,90.5C 99.5,62.1667 99.5,33.8333 99.5,5.5C 105.167,5.5 110.833,5.5 116.5,5.5 Z"/></g>
<g><path style="opacity:1" fill="#fcfcfc" d="M 669.5,18.5 C 685.273,15.4567 695.44,21.4567 700,36.5C 700.863,44.5643 700.53,52.5643 699,60.5C 693.843,74.2845 684.009,79.4512 669.5,76C 657.624,70.1043 652.29,60.4376 653.5,47C 652.529,33.7583 657.863,24.2583 669.5,18.5 Z"/></g>
<g><path style="opacity:1" fill="#747474" d="M 246.5,19.5 C 238.833,19.5 231.167,19.5 223.5,19.5C 223.5,25.8333 223.5,32.1667 223.5,38.5C 222.509,32.021 222.176,25.3543 222.5,18.5C 230.684,18.1743 238.684,18.5076 246.5,19.5 Z"/></g>
<g><path style="opacity:1" fill="#fcfcfc" d="M 246.5,19.5 C 254.193,19.877 257.36,23.877 256,31.5C 255.067,35.3949 252.567,37.5616 248.5,38C 240.173,38.4997 231.84,38.6664 223.5,38.5C 223.5,32.1667 223.5,25.8333 223.5,19.5C 231.167,19.5 238.833,19.5 246.5,19.5 Z"/></g>
<g><path style="opacity:1" fill="#f9f9f9" d="M 396.5,18.5 C 404.84,18.3336 413.173,18.5003 421.5,19C 429.412,21.605 431.579,26.7716 428,34.5C 426.2,36.317 424.034,37.4837 421.5,38C 413.173,38.4997 404.84,38.6664 396.5,38.5C 396.5,31.8333 396.5,25.1667 396.5,18.5 Z"/></g>
<g><path style="opacity:1" fill="#fbfbfb" d="M 569.5,19.5 C 578.839,19.3335 588.173,19.5002 597.5,20C 602.308,21.3122 604.642,24.4789 604.5,29.5C 604.823,34.3935 602.823,37.8935 598.5,40C 588.839,40.4998 579.172,40.6665 569.5,40.5C 569.5,33.5 569.5,26.5 569.5,19.5 Z"/></g>
<g><path style="opacity:1" fill="#f9f9f9" d="M 45.5,25.5 C 49.9998,35.1858 53.9998,45.1858 57.5,55.5C 49.8333,56.8333 42.1667,56.8333 34.5,55.5C 38.5673,45.63 42.234,35.63 45.5,25.5 Z"/></g>
<g><path style="opacity:1" fill="#f9f9f9" d="M 325.5,25.5 C 329.669,35.3206 333.669,45.3206 337.5,55.5C 329.833,56.8333 322.167,56.8333 314.5,55.5C 318.567,45.63 322.234,35.63 325.5,25.5 Z"/></g>
<g><path style="opacity:1" fill="#f9f9f9" d="M 498.5,25.5 C 499.117,25.6107 499.617,25.944 500,26.5C 503.8,36.425 507.3,46.425 510.5,56.5C 502.826,56.6664 495.159,56.4997 487.5,56C 491.862,46.0816 495.528,35.9149 498.5,25.5 Z"/></g>
<g><path style="opacity:1" fill="#fdfdfd" d="M 223.5,53.5 C 232.506,53.3336 241.506,53.5002 250.5,54C 259.373,56.9496 261.873,62.7829 258,71.5C 256.421,73.0412 254.587,74.2078 252.5,75C 242.839,75.4998 233.172,75.6665 223.5,75.5C 223.5,68.1667 223.5,60.8333 223.5,53.5 Z"/></g>
<g><path style="opacity:1" fill="#fdfdfd" d="M 396.5,53.5 C 406.172,53.3335 415.839,53.5002 425.5,54C 430.209,55.9174 432.542,59.4174 432.5,64.5C 433.023,69.9657 430.689,73.4657 425.5,75C 415.839,75.4998 406.172,75.6665 396.5,75.5C 396.5,68.1667 396.5,60.8333 396.5,53.5 Z"/></g>
<g><path style="opacity:1" fill="#828282" d="M 116.5,5.5 C 117.498,28.6607 117.831,51.994 117.5,75.5C 131.833,75.5 146.167,75.5 160.5,75.5C 160.821,80.6946 160.487,85.6946 159.5,90.5C 159.5,85.8333 159.5,81.1667 159.5,76.5C 145.167,76.5 130.833,76.5 116.5,76.5C 116.5,52.8333 116.5,29.1667 116.5,5.5 Z"/></g>
</svg>